solid OpenSCAD_Model
  facet normal -1 0 0
    outer loop
      vertex 0 0 3
      vertex 0 90 6
      vertex 0 90 3
    endloop
  endfacet
  facet normal -1 -0 0
    outer loop
      vertex 0 90 6
      vertex 0 0 3
      vertex 0 0 6
    endloop
  endfacet
  facet normal -0 0 1
    outer loop
      vertex 0 90 6
      vertex 170 0 6
      vertex 170 90 6
    endloop
  endfacet
  facet normal 0 0 1
    outer loop
      vertex 170 0 6
      vertex 0 90 6
      vertex 0 0 6
    endloop
  endfacet
  facet normal 1 -0 0
    outer loop
      vertex 170 0 6
      vertex 170 90 3
      vertex 170 90 6
    endloop
  endfacet
  facet normal 1 0 0
    outer loop
      vertex 170 90 3
      vertex 170 0 6
      vertex 170 0 3
    endloop
  endfacet
  facet normal 0 0 -1
    outer loop
      vertex 170 0 3
      vertex 167.35 2.65 3
      vertex 170 90 3
    endloop
  endfacet
  facet normal 0 0 -1
    outer loop
      vertex 170 0 3
      vertex 2.65 2.65 3
      vertex 167.35 2.65 3
    endloop
  endfacet
  facet normal -0 0 -1
    outer loop
      vertex 2.65 2.65 3
      vertex 0 0 3
      vertex 2.65 87.35 3
    endloop
  endfacet
  facet normal 0 0 -1
    outer loop
      vertex 0 0 3
      vertex 2.65 2.65 3
      vertex 170 0 3
    endloop
  endfacet
  facet normal 0 0 -1
    outer loop
      vertex 167.35 87.35 3
      vertex 170 90 3
      vertex 167.35 2.65 3
    endloop
  endfacet
  facet normal 0 0 -1
    outer loop
      vertex 2.65 87.35 3
      vertex 170 90 3
      vertex 167.35 87.35 3
    endloop
  endfacet
  facet normal 0 0 -1
    outer loop
      vertex 2.65 87.35 3
      vertex 0 90 3
      vertex 170 90 3
    endloop
  endfacet
  facet normal 0 0 -1
    outer loop
      vertex 0 90 3
      vertex 2.65 87.35 3
      vertex 0 0 3
    endloop
  endfacet
  facet normal 0 -1 0
    outer loop
      vertex 0 0 3
      vertex 170 0 6
      vertex 0 0 6
    endloop
  endfacet
  facet normal 0 -1 -0
    outer loop
      vertex 170 0 6
      vertex 0 0 3
      vertex 170 0 3
    endloop
  endfacet
  facet normal 0 1 -0
    outer loop
      vertex 170 90 3
      vertex 0 90 6
      vertex 170 90 6
    endloop
  endfacet
  facet normal 0 1 0
    outer loop
      vertex 0 90 6
      vertex 170 90 3
      vertex 0 90 3
    endloop
  endfacet
  facet normal -1 0 0
    outer loop
      vertex 2.65 2.65 0
      vertex 2.65 87.35 3
      vertex 2.65 87.35 0
    endloop
  endfacet
  facet normal -1 -0 0
    outer loop
      vertex 2.65 87.35 3
      vertex 2.65 2.65 0
      vertex 2.65 2.65 3
    endloop
  endfacet
  facet normal 1 -0 0
    outer loop
      vertex 167.35 2.65 3
      vertex 167.35 87.35 0
      vertex 167.35 87.35 3
    endloop
  endfacet
  facet normal 1 0 0
    outer loop
      vertex 167.35 87.35 0
      vertex 167.35 2.65 3
      vertex 167.35 2.65 0
    endloop
  endfacet
  facet normal 0 0 -1
    outer loop
      vertex 2.65 2.65 0
      vertex 167.35 87.35 0
      vertex 167.35 2.65 0
    endloop
  endfacet
  facet normal -0 0 -1
    outer loop
      vertex 167.35 87.35 0
      vertex 2.65 2.65 0
      vertex 2.65 87.35 0
    endloop
  endfacet
  facet normal 0 -1 0
    outer loop
      vertex 2.65 2.65 0
      vertex 167.35 2.65 3
      vertex 2.65 2.65 3
    endloop
  endfacet
  facet normal 0 -1 -0
    outer loop
      vertex 167.35 2.65 3
      vertex 2.65 2.65 0
      vertex 167.35 2.65 0
    endloop
  endfacet
  facet normal 0 1 -0
    outer loop
      vertex 167.35 87.35 0
      vertex 2.65 87.35 3
      vertex 167.35 87.35 3
    endloop
  endfacet
  facet normal 0 1 0
    outer loop
      vertex 2.65 87.35 3
      vertex 167.35 87.35 0
      vertex 2.65 87.35 0
    endloop
  endfacet
endsolid OpenSCAD_Model
