solid OpenSCAD_Model
  facet normal -1 0 0
    outer loop
      vertex 0 0 0
      vertex 0 90 6
      vertex 0 90 0
    endloop
  endfacet
  facet normal -1 -0 0
    outer loop
      vertex 0 90 6
      vertex 0 0 0
      vertex 0 0 6
    endloop
  endfacet
  facet normal -0 0 1
    outer loop
      vertex 0 90 6
      vertex 170 0 6
      vertex 170 90 6
    endloop
  endfacet
  facet normal 0 0 1
    outer loop
      vertex 170 0 6
      vertex 0 90 6
      vertex 0 0 6
    endloop
  endfacet
  facet normal 1 -0 0
    outer loop
      vertex 170 0 6
      vertex 170 90 0
      vertex 170 90 6
    endloop
  endfacet
  facet normal 1 0 0
    outer loop
      vertex 170 90 0
      vertex 170 0 6
      vertex 170 0 0
    endloop
  endfacet
  facet normal 0 0 -1
    outer loop
      vertex 170 0 0
      vertex 168.7 1.3 0
      vertex 170 90 0
    endloop
  endfacet
  facet normal 0 0 -1
    outer loop
      vertex 170 0 0
      vertex 1.3 1.3 0
      vertex 168.7 1.3 0
    endloop
  endfacet
  facet normal -0 0 -1
    outer loop
      vertex 1.3 1.3 0
      vertex 0 0 0
      vertex 1.3 88.7 0
    endloop
  endfacet
  facet normal 0 0 -1
    outer loop
      vertex 0 0 0
      vertex 1.3 1.3 0
      vertex 170 0 0
    endloop
  endfacet
  facet normal 0 0 -1
    outer loop
      vertex 168.7 88.7 0
      vertex 170 90 0
      vertex 168.7 1.3 0
    endloop
  endfacet
  facet normal 0 0 -1
    outer loop
      vertex 1.3 88.7 0
      vertex 170 90 0
      vertex 168.7 88.7 0
    endloop
  endfacet
  facet normal 0 0 -1
    outer loop
      vertex 1.3 88.7 0
      vertex 0 90 0
      vertex 170 90 0
    endloop
  endfacet
  facet normal 0 0 -1
    outer loop
      vertex 0 90 0
      vertex 1.3 88.7 0
      vertex 0 0 0
    endloop
  endfacet
  facet normal 0 -1 0
    outer loop
      vertex 0 0 0
      vertex 170 0 6
      vertex 0 0 6
    endloop
  endfacet
  facet normal 0 -1 -0
    outer loop
      vertex 170 0 6
      vertex 0 0 0
      vertex 170 0 0
    endloop
  endfacet
  facet normal 0 1 -0
    outer loop
      vertex 170 90 0
      vertex 0 90 6
      vertex 170 90 6
    endloop
  endfacet
  facet normal 0 1 0
    outer loop
      vertex 0 90 6
      vertex 170 90 0
      vertex 0 90 0
    endloop
  endfacet
  facet normal 1 -0 0
    outer loop
      vertex 1.3 1.3 3
      vertex 1.3 88.7 0
      vertex 1.3 88.7 3
    endloop
  endfacet
  facet normal 1 0 0
    outer loop
      vertex 1.3 88.7 0
      vertex 1.3 1.3 3
      vertex 1.3 1.3 0
    endloop
  endfacet
  facet normal 0 0 -1
    outer loop
      vertex 1.3 1.3 3
      vertex 168.7 88.7 3
      vertex 168.7 1.3 3
    endloop
  endfacet
  facet normal -0 0 -1
    outer loop
      vertex 168.7 88.7 3
      vertex 1.3 1.3 3
      vertex 1.3 88.7 3
    endloop
  endfacet
  facet normal -1 0 0
    outer loop
      vertex 168.7 1.3 0
      vertex 168.7 88.7 3
      vertex 168.7 88.7 0
    endloop
  endfacet
  facet normal -1 -0 0
    outer loop
      vertex 168.7 88.7 3
      vertex 168.7 1.3 0
      vertex 168.7 1.3 3
    endloop
  endfacet
  facet normal 0 1 -0
    outer loop
      vertex 168.7 1.3 0
      vertex 1.3 1.3 3
      vertex 168.7 1.3 3
    endloop
  endfacet
  facet normal 0 1 0
    outer loop
      vertex 1.3 1.3 3
      vertex 168.7 1.3 0
      vertex 1.3 1.3 0
    endloop
  endfacet
  facet normal 0 -1 0
    outer loop
      vertex 1.3 88.7 0
      vertex 168.7 88.7 3
      vertex 1.3 88.7 3
    endloop
  endfacet
  facet normal 0 -1 -0
    outer loop
      vertex 168.7 88.7 3
      vertex 1.3 88.7 0
      vertex 168.7 88.7 0
    endloop
  endfacet
endsolid OpenSCAD_Model
